<mxfile host="app.diagrams.net" agent="Mozilla/5.0 (Windows NT 10.0; Win64; x64) AppleWebKit/537.36 (KHTML, like Gecko) Chrome/131.0.0.0 Safari/537.36 Edg/131.0.0.0" version="26.0.1">
  <diagram name="第 1 页" id="0Kt1D2V2hj2TgpJe808U">
    <mxGraphModel dx="1213" dy="768" grid="1" gridSize="10" guides="1" tooltips="1" connect="1" arrows="1" fold="1" page="1" pageScale="1" pageWidth="1169" pageHeight="827" math="0" shadow="0">
      <root>
        <mxCell id="0" />
        <mxCell id="1" parent="0" />
        <mxCell id="Q_iBPXiAuodEaZNiJX-7-2" value="&lt;font style=&quot;font-size: 16px;&quot; face=&quot;Times New Roman&quot;&gt;User Interface&lt;/font&gt;" style="rounded=1;whiteSpace=wrap;html=1;" parent="1" vertex="1">
          <mxGeometry x="340" y="260" width="120" height="60" as="geometry" />
        </mxCell>
        <mxCell id="Q_iBPXiAuodEaZNiJX-7-3" value="" style="endArrow=classic;html=1;rounded=0;entryX=0;entryY=0.5;entryDx=0;entryDy=0;" parent="1" target="Q_iBPXiAuodEaZNiJX-7-4" edge="1">
          <mxGeometry width="50" height="50" relative="1" as="geometry">
            <mxPoint x="400" y="260" as="sourcePoint" />
            <mxPoint x="450" y="210" as="targetPoint" />
          </mxGeometry>
        </mxCell>
        <mxCell id="Q_iBPXiAuodEaZNiJX-7-4" value="&lt;font face=&quot;Times New Roman&quot; style=&quot;font-size: 16px;&quot;&gt;Car Model&lt;/font&gt;" style="rounded=1;whiteSpace=wrap;html=1;" parent="1" vertex="1">
          <mxGeometry x="440" y="170" width="120" height="60" as="geometry" />
        </mxCell>
        <mxCell id="Q_iBPXiAuodEaZNiJX-7-6" value="&lt;font style=&quot;font-size: 16px;&quot; face=&quot;Times New Roman&quot;&gt;Repository&lt;/font&gt;" style="rounded=1;whiteSpace=wrap;html=1;" parent="1" vertex="1">
          <mxGeometry x="440" y="370" width="120" height="60" as="geometry" />
        </mxCell>
        <mxCell id="Q_iBPXiAuodEaZNiJX-7-7" value="" style="endArrow=classic;html=1;rounded=0;entryX=0.5;entryY=0;entryDx=0;entryDy=0;exitX=0.5;exitY=1;exitDx=0;exitDy=0;dashed=1;dashPattern=8 8;" parent="1" source="Q_iBPXiAuodEaZNiJX-7-4" target="Q_iBPXiAuodEaZNiJX-7-6" edge="1">
          <mxGeometry width="50" height="50" relative="1" as="geometry">
            <mxPoint x="400" y="320" as="sourcePoint" />
            <mxPoint x="450" y="270" as="targetPoint" />
          </mxGeometry>
        </mxCell>
        <mxCell id="Q_iBPXiAuodEaZNiJX-7-8" value="&lt;font style=&quot;font-size: 15px;&quot;&gt;查询车品牌&lt;/font&gt;" style="text;html=1;align=center;verticalAlign=middle;whiteSpace=wrap;rounded=0;" parent="1" vertex="1">
          <mxGeometry x="340" y="210" width="80" height="30" as="geometry" />
        </mxCell>
        <mxCell id="Q_iBPXiAuodEaZNiJX-7-10" value="" style="endArrow=classic;html=1;rounded=0;entryX=0;entryY=0.5;entryDx=0;entryDy=0;exitX=0.5;exitY=1;exitDx=0;exitDy=0;" parent="1" source="Q_iBPXiAuodEaZNiJX-7-2" target="Q_iBPXiAuodEaZNiJX-7-6" edge="1">
          <mxGeometry width="50" height="50" relative="1" as="geometry">
            <mxPoint x="370" y="380" as="sourcePoint" />
            <mxPoint x="420" y="330" as="targetPoint" />
          </mxGeometry>
        </mxCell>
        <mxCell id="Q_iBPXiAuodEaZNiJX-7-11" value="&lt;div&gt;&lt;font style=&quot;font-size: 15px;&quot;&gt;基于车品牌&lt;/font&gt;&lt;/div&gt;&lt;font style=&quot;font-size: 15px;&quot;&gt;查询具体车辆&lt;/font&gt;" style="text;html=1;align=center;verticalAlign=middle;whiteSpace=wrap;rounded=0;" parent="1" vertex="1">
          <mxGeometry x="410" y="320" width="100" height="40" as="geometry" />
        </mxCell>
        <mxCell id="Q_iBPXiAuodEaZNiJX-7-13" value="Lease" style="rounded=1;whiteSpace=wrap;html=1;" parent="1" vertex="1">
          <mxGeometry x="180" y="370" width="120" height="60" as="geometry" />
        </mxCell>
        <mxCell id="Q_iBPXiAuodEaZNiJX-7-14" value="" style="endArrow=classic;html=1;rounded=0;exitX=0.5;exitY=1;exitDx=0;exitDy=0;entryX=1;entryY=0.5;entryDx=0;entryDy=0;" parent="1" source="Q_iBPXiAuodEaZNiJX-7-2" target="Q_iBPXiAuodEaZNiJX-7-13" edge="1">
          <mxGeometry width="50" height="50" relative="1" as="geometry">
            <mxPoint x="370" y="370" as="sourcePoint" />
            <mxPoint x="420" y="320" as="targetPoint" />
          </mxGeometry>
        </mxCell>
        <mxCell id="Q_iBPXiAuodEaZNiJX-7-15" value="&lt;font style=&quot;font-size: 15px;&quot;&gt;租具体车辆&lt;/font&gt;" style="text;html=1;align=center;verticalAlign=middle;whiteSpace=wrap;rounded=0;" parent="1" vertex="1">
          <mxGeometry x="260" y="330" width="80" height="30" as="geometry" />
        </mxCell>
        <mxCell id="Q_iBPXiAuodEaZNiJX-7-17" value="&lt;font style=&quot;font-size: 14px;&quot; face=&quot;Times New Roman&quot;&gt;了解车辆品牌&lt;/font&gt;" style="rounded=1;whiteSpace=wrap;html=1;" parent="1" vertex="1">
          <mxGeometry x="870" y="180" width="120" height="60" as="geometry" />
        </mxCell>
        <mxCell id="Q_iBPXiAuodEaZNiJX-7-18" value="" style="endArrow=classic;html=1;rounded=0;exitX=1;exitY=0.5;exitDx=0;exitDy=0;entryX=0;entryY=0.5;entryDx=0;entryDy=0;" parent="1" source="Q_iBPXiAuodEaZNiJX-7-17" target="Q_iBPXiAuodEaZNiJX-7-19" edge="1">
          <mxGeometry width="50" height="50" relative="1" as="geometry">
            <mxPoint x="940" y="280" as="sourcePoint" />
            <mxPoint x="1040" y="200" as="targetPoint" />
          </mxGeometry>
        </mxCell>
        <mxCell id="Q_iBPXiAuodEaZNiJX-7-19" value="&lt;font style=&quot;font-size: 14px;&quot; face=&quot;Times New Roman&quot;&gt;了解相应品牌车辆&lt;/font&gt;" style="rounded=1;whiteSpace=wrap;html=1;" parent="1" vertex="1">
          <mxGeometry x="1030" y="180" width="120" height="60" as="geometry" />
        </mxCell>
        <mxCell id="Q_iBPXiAuodEaZNiJX-7-21" value="&lt;font style=&quot;font-size: 16px;&quot; face=&quot;Times New Roman&quot;&gt;&lt;b&gt;(1) 前端&lt;/b&gt;&lt;/font&gt;" style="text;html=1;align=center;verticalAlign=middle;whiteSpace=wrap;rounded=0;" parent="1" vertex="1">
          <mxGeometry x="840" y="160" width="100" height="20" as="geometry" />
        </mxCell>
        <mxCell id="Q_iBPXiAuodEaZNiJX-7-24" value="&lt;font style=&quot;font-size: 14px;&quot; face=&quot;Times New Roman&quot;&gt;了解具体车辆&lt;/font&gt;" style="rounded=1;whiteSpace=wrap;html=1;" parent="1" vertex="1">
          <mxGeometry x="1200" y="180" width="120" height="60" as="geometry" />
        </mxCell>
        <mxCell id="Q_iBPXiAuodEaZNiJX-7-25" value="" style="endArrow=classic;html=1;rounded=0;exitX=1;exitY=0.5;exitDx=0;exitDy=0;entryX=0;entryY=0.5;entryDx=0;entryDy=0;" parent="1" source="Q_iBPXiAuodEaZNiJX-7-19" target="Q_iBPXiAuodEaZNiJX-7-24" edge="1">
          <mxGeometry width="50" height="50" relative="1" as="geometry">
            <mxPoint x="1100" y="330" as="sourcePoint" />
            <mxPoint x="1150" y="280" as="targetPoint" />
          </mxGeometry>
        </mxCell>
        <mxCell id="Q_iBPXiAuodEaZNiJX-7-28" value="&lt;font style=&quot;font-size: 16px;&quot; face=&quot;Times New Roman&quot;&gt;&lt;b&gt;(2) 后端&lt;/b&gt;&lt;/font&gt;" style="text;html=1;align=center;verticalAlign=middle;whiteSpace=wrap;rounded=0;" parent="1" vertex="1">
          <mxGeometry x="840" y="260" width="100" height="20" as="geometry" />
        </mxCell>
        <mxCell id="Q_iBPXiAuodEaZNiJX-7-34" value="" style="edgeStyle=orthogonalEdgeStyle;rounded=0;orthogonalLoop=1;jettySize=auto;html=1;" parent="1" source="Q_iBPXiAuodEaZNiJX-7-29" target="Q_iBPXiAuodEaZNiJX-7-30" edge="1">
          <mxGeometry relative="1" as="geometry" />
        </mxCell>
        <mxCell id="Q_iBPXiAuodEaZNiJX-7-29" value="&lt;font face=&quot;Times New Roman&quot;&gt;&lt;span style=&quot;font-size: 14px;&quot;&gt;查询关系Vehicle&lt;/span&gt;&lt;/font&gt;" style="rounded=1;whiteSpace=wrap;html=1;" parent="1" vertex="1">
          <mxGeometry x="870" y="280" width="120" height="60" as="geometry" />
        </mxCell>
        <mxCell id="Q_iBPXiAuodEaZNiJX-7-30" value="&lt;font style=&quot;font-size: 14px;&quot; face=&quot;Times New Roman&quot;&gt;联表查询相关车辆&lt;/font&gt;" style="rounded=1;whiteSpace=wrap;html=1;" parent="1" vertex="1">
          <mxGeometry x="1030" y="280" width="120" height="60" as="geometry" />
        </mxCell>
        <mxCell id="Q_iBPXiAuodEaZNiJX-7-31" value="&lt;font face=&quot;Times New Roman&quot;&gt;&lt;span style=&quot;font-size: 14px;&quot;&gt;查询具体车辆信息&lt;/span&gt;&lt;/font&gt;" style="rounded=1;whiteSpace=wrap;html=1;" parent="1" vertex="1">
          <mxGeometry x="1200" y="280" width="120" height="60" as="geometry" />
        </mxCell>
        <mxCell id="Q_iBPXiAuodEaZNiJX-7-32" value="" style="endArrow=classic;html=1;rounded=0;exitX=1;exitY=0.5;exitDx=0;exitDy=0;entryX=0;entryY=0.5;entryDx=0;entryDy=0;" parent="1" edge="1">
          <mxGeometry width="50" height="50" relative="1" as="geometry">
            <mxPoint x="990" y="309.64" as="sourcePoint" />
            <mxPoint x="1030" y="309.64" as="targetPoint" />
          </mxGeometry>
        </mxCell>
        <mxCell id="Q_iBPXiAuodEaZNiJX-7-33" value="" style="endArrow=classic;html=1;rounded=0;exitX=1;exitY=0.5;exitDx=0;exitDy=0;entryX=0;entryY=0.5;entryDx=0;entryDy=0;" parent="1" edge="1">
          <mxGeometry width="50" height="50" relative="1" as="geometry">
            <mxPoint x="1150" y="309.64" as="sourcePoint" />
            <mxPoint x="1200" y="309.64" as="targetPoint" />
          </mxGeometry>
        </mxCell>
        <mxCell id="Q_iBPXiAuodEaZNiJX-7-35" value="" style="endArrow=classic;html=1;rounded=0;exitX=0.5;exitY=0;exitDx=0;exitDy=0;entryX=0.5;entryY=1;entryDx=0;entryDy=0;" parent="1" source="Q_iBPXiAuodEaZNiJX-7-29" target="Q_iBPXiAuodEaZNiJX-7-17" edge="1">
          <mxGeometry width="50" height="50" relative="1" as="geometry">
            <mxPoint x="920" y="270" as="sourcePoint" />
            <mxPoint x="960" y="270" as="targetPoint" />
          </mxGeometry>
        </mxCell>
        <mxCell id="Q_iBPXiAuodEaZNiJX-7-36" value="" style="endArrow=classic;html=1;rounded=0;exitX=0.5;exitY=0;exitDx=0;exitDy=0;entryX=0.5;entryY=1;entryDx=0;entryDy=0;" parent="1" edge="1">
          <mxGeometry width="50" height="50" relative="1" as="geometry">
            <mxPoint x="1089.6399999999999" y="280" as="sourcePoint" />
            <mxPoint x="1089.6399999999999" y="240" as="targetPoint" />
          </mxGeometry>
        </mxCell>
        <mxCell id="Q_iBPXiAuodEaZNiJX-7-37" value="" style="endArrow=classic;html=1;rounded=0;exitX=0.5;exitY=0;exitDx=0;exitDy=0;entryX=0.5;entryY=1;entryDx=0;entryDy=0;" parent="1" edge="1">
          <mxGeometry width="50" height="50" relative="1" as="geometry">
            <mxPoint x="1259.6399999999999" y="280" as="sourcePoint" />
            <mxPoint x="1259.6399999999999" y="240" as="targetPoint" />
          </mxGeometry>
        </mxCell>
        <mxCell id="nZGQ2xqekUDqnziC2rJ7-1" value="&lt;font style=&quot;font-size: 20px;&quot; face=&quot;Times New Roman&quot;&gt;Interface&lt;/font&gt;" style="rounded=1;whiteSpace=wrap;html=1;" vertex="1" parent="1">
          <mxGeometry x="970" y="530" width="120" height="60" as="geometry" />
        </mxCell>
        <mxCell id="nZGQ2xqekUDqnziC2rJ7-2" value="&lt;font style=&quot;font-size: 20px;&quot;&gt;还车&lt;/font&gt;" style="rounded=1;whiteSpace=wrap;html=1;" vertex="1" parent="1">
          <mxGeometry x="1100" y="470" width="120" height="60" as="geometry" />
        </mxCell>
        <mxCell id="nZGQ2xqekUDqnziC2rJ7-3" value="&lt;font style=&quot;font-size: 20px;&quot; face=&quot;Times New Roman&quot;&gt;租车&lt;/font&gt;" style="rounded=1;whiteSpace=wrap;html=1;" vertex="1" parent="1">
          <mxGeometry x="840" y="470" width="120" height="60" as="geometry" />
        </mxCell>
        <mxCell id="nZGQ2xqekUDqnziC2rJ7-4" value="" style="endArrow=classic;html=1;rounded=0;exitX=1;exitY=0.5;exitDx=0;exitDy=0;entryX=0.5;entryY=1;entryDx=0;entryDy=0;" edge="1" parent="1" source="nZGQ2xqekUDqnziC2rJ7-1" target="nZGQ2xqekUDqnziC2rJ7-2">
          <mxGeometry width="50" height="50" relative="1" as="geometry">
            <mxPoint x="1119" y="580" as="sourcePoint" />
            <mxPoint x="1169" y="530" as="targetPoint" />
          </mxGeometry>
        </mxCell>
        <mxCell id="nZGQ2xqekUDqnziC2rJ7-5" value="" style="endArrow=classic;html=1;rounded=0;exitX=0;exitY=0.5;exitDx=0;exitDy=0;entryX=0.5;entryY=1;entryDx=0;entryDy=0;" edge="1" parent="1" source="nZGQ2xqekUDqnziC2rJ7-1" target="nZGQ2xqekUDqnziC2rJ7-3">
          <mxGeometry width="50" height="50" relative="1" as="geometry">
            <mxPoint x="1010" y="690" as="sourcePoint" />
            <mxPoint x="1060" y="640" as="targetPoint" />
          </mxGeometry>
        </mxCell>
        <mxCell id="nZGQ2xqekUDqnziC2rJ7-6" value="&lt;font style=&quot;font-size: 20px;&quot; face=&quot;Times New Roman&quot;&gt;Backend&lt;/font&gt;" style="ellipse;whiteSpace=wrap;html=1;" vertex="1" parent="1">
          <mxGeometry x="970" y="630" width="120" height="60" as="geometry" />
        </mxCell>
        <mxCell id="nZGQ2xqekUDqnziC2rJ7-7" value="" style="endArrow=classic;html=1;rounded=0;exitX=0.5;exitY=1;exitDx=0;exitDy=0;entryX=0;entryY=0.5;entryDx=0;entryDy=0;" edge="1" parent="1" source="nZGQ2xqekUDqnziC2rJ7-3" target="nZGQ2xqekUDqnziC2rJ7-6">
          <mxGeometry width="50" height="50" relative="1" as="geometry">
            <mxPoint x="1010" y="680" as="sourcePoint" />
            <mxPoint x="1060" y="630" as="targetPoint" />
          </mxGeometry>
        </mxCell>
        <mxCell id="nZGQ2xqekUDqnziC2rJ7-8" value="" style="endArrow=classic;html=1;rounded=0;exitX=0.5;exitY=1;exitDx=0;exitDy=0;entryX=1;entryY=0.5;entryDx=0;entryDy=0;" edge="1" parent="1" source="nZGQ2xqekUDqnziC2rJ7-2" target="nZGQ2xqekUDqnziC2rJ7-6">
          <mxGeometry width="50" height="50" relative="1" as="geometry">
            <mxPoint x="1010" y="680" as="sourcePoint" />
            <mxPoint x="1060" y="630" as="targetPoint" />
          </mxGeometry>
        </mxCell>
        <mxCell id="nZGQ2xqekUDqnziC2rJ7-9" value="&lt;font face=&quot;Times New Roman&quot; style=&quot;font-size: 20px;&quot;&gt;Feedback&lt;/font&gt;" style="text;html=1;align=center;verticalAlign=middle;whiteSpace=wrap;rounded=0;" vertex="1" parent="1">
          <mxGeometry x="840" y="590" width="60" height="30" as="geometry" />
        </mxCell>
        <mxCell id="nZGQ2xqekUDqnziC2rJ7-11" value="&lt;font face=&quot;Times New Roman&quot; style=&quot;font-size: 20px;&quot;&gt;Feedback&lt;/font&gt;" style="text;html=1;align=center;verticalAlign=middle;whiteSpace=wrap;rounded=0;" vertex="1" parent="1">
          <mxGeometry x="1160" y="590" width="60" height="30" as="geometry" />
        </mxCell>
        <mxCell id="nZGQ2xqekUDqnziC2rJ7-12" value="" style="endArrow=classic;html=1;rounded=0;exitX=0.5;exitY=0;exitDx=0;exitDy=0;entryX=0.5;entryY=1;entryDx=0;entryDy=0;dashed=1;dashPattern=8 8;" edge="1" parent="1" source="nZGQ2xqekUDqnziC2rJ7-6" target="nZGQ2xqekUDqnziC2rJ7-1">
          <mxGeometry width="50" height="50" relative="1" as="geometry">
            <mxPoint x="1010" y="680" as="sourcePoint" />
            <mxPoint x="1060" y="630" as="targetPoint" />
          </mxGeometry>
        </mxCell>
        <mxCell id="nZGQ2xqekUDqnziC2rJ7-14" value="&lt;font style=&quot;font-size: 20px;&quot; face=&quot;Times New Roman&quot;&gt;Echo&lt;/font&gt;" style="text;html=1;align=center;verticalAlign=middle;whiteSpace=wrap;rounded=0;" vertex="1" parent="1">
          <mxGeometry x="1040" y="600" width="60" height="30" as="geometry" />
        </mxCell>
      </root>
    </mxGraphModel>
  </diagram>
</mxfile>
